<?xml version="1.0" encoding="utf-8"?>
<!-- Generator: Adobe Illustrator 27.0.0, SVG Export Plug-In . SVG Version: 6.00 Build 0)  -->
<svg version="1.1" id="Layer_1" xmlns="http://www.w3.org/2000/svg" xmlns:xlink="http://www.w3.org/1999/xlink" x="0px" y="0px"
	 viewBox="0 0 1152 326" style="enable-background:new 0 0 1152 326;" xml:space="preserve">
<style type="text/css">
	.st0{fill:#C29D92;}
	.st1{fill:#7B534B;}
	.st2{font-family:'ArialMT';}
	.st3{font-size:12.6629px;}
	.st4{fill:none;stroke:#7B534B;stroke-miterlimit:10;}
	.st5{fill:none;stroke:#000000;stroke-miterlimit:10;}
</style>
<image style="display:none;overflow:visible;" width="617" height="596" xlink:href="FF06CCD3.jpg"  transform="matrix(0.4473 0 0 0.4473 104.1113 37.2128)">
</image>
<polygon class="st0" points="1152,326 0,246.6 0,0 1152,79.1 "/>
<g>
	
		<image style="overflow:visible;" width="650" height="652" xlink:href="FF06CCD1.png"  transform="matrix(0.3858 0 0 0.3858 83.5596 29.709)">
	</image>
	<g>
		<text transform="matrix(1 0 0 1 348.392 152.9737)" class="st1 st2 st3">desk pad</text>
	</g>
	<path class="st4" d="M242,149.7c5.9-17.2,12.7-31.9,19.3-31.4c5.9,0.5,6.7,13,13.2,15.1c7.6,2.4,21.6-9.7,47.2-54.4"/>
	<g>
		<text transform="matrix(1 0 0 1 290.579 74.4502)" class="st1 st2 st3">privacy dividers</text>
	</g>
	<path class="st4" d="M175.1,148.2c-0.3,6.8-1.7,17-8.7,21.5c-11.3,7.3-26.6-7.1-47.6-7.6c-11.6-0.3-29.1,3.6-51,25.3"/>
	<path class="st4" d="M134.7,101c-14.8-12.9-24.7-14-31-12.5c-13.6,3.3-17.3,20-29.5,20.8c-8.4,0.5-15.7-6.8-20.4-12.9"/>
	<g>
		<text transform="matrix(1 0 0 1 34.8007 200.7935)" class="st1 st2 st3">technology</text>
	</g>
	<g>
		<text transform="matrix(1 0 0 1 23.5395 75.2745)"><tspan x="0" y="0" class="st1 st2 st3">pull-down</tspan><tspan x="-7" y="15.2" class="st1 st2 st3">saftey cover</tspan></text>
	</g>
	<path class="st4" d="M263.2,230.3c5.3-6.6,13.8-9.1,20.4-6.4c7.7,3.1,1.3,19.3,8.3,25.7c4.7,4.3,15.4,4.7,39.7-7.9"/>
	<path class="st4" d="M293.8,194.7c3.9-7.5,10-16.3,19.3-18.1c10.2-2.1,16.2,5.8,26.8,5.7c7.8-0.1,18.4-4.5,31-23.1"/>
	<g>
		<text transform="matrix(1 0 0 1 319.5185 219.273)"><tspan x="0" y="0" class="st1 st2 st3">locking</tspan><tspan x="-12.7" y="15.2" class="st1 st2 st3">mechanism</tspan></text>
	</g>
</g>
<image style="overflow:visible;" width="623" height="620" xlink:href="FF06CCD7.png"  transform="matrix(0.4751 8.979985e-03 -8.979985e-03 0.4751 492.4766 8.7159)">
</image>
<image style="overflow:visible;" width="692" height="732" xlink:href="FF06CCD0.png"  transform="matrix(0.3898 -1.111191e-02 1.111191e-02 0.3898 822.2222 14.6713)">
</image>
<g>
	<rect x="434.9" y="133.1" class="st1" width="42.6" height="25.7"/>
	<polygon class="st1" points="498.8,145.9 477.2,167.8 477.2,124.1 498.8,145.9 	"/>
</g>
<g>
	<rect x="767.2" y="140.6" class="st1" width="42.6" height="25.7"/>
	<polygon class="st1" points="831.1,153.5 809.5,175.4 809.5,131.6 831.1,153.5 	"/>
</g>
<path class="st5" d="M1000.3,84.9c11.6,2.2,30,7.8,48.8,23.6c21.6,18,33.7,41,39.8,54.8l2.4-15.8"/>
<path class="st5" d="M1133,171.5"/>
<path class="st5" d="M1075.6,156.7"/>
<line class="st5" x1="1088.9" y1="164.1" x2="1075.6" y2="157.6"/>
</svg>
